<svg xmlns="http://www.w3.org/2000/svg" xmlns:xlink="http://www.w3.org/1999/xlink" width="500" zoomAndPan="magnify" viewBox="0 0 375 374.999991" height="500" preserveAspectRatio="xMidYMid meet" version="1.0"><defs><filter x="0%" y="0%" width="100%" height="100%" id="6aaf5459bc"><feColorMatrix values="0 0 0 0 1 0 0 0 0 1 0 0 0 0 1 0 0 0 1 0" color-interpolation-filters="sRGB"/></filter><g/><mask id="9ec53c61b5"><g filter="url(#6aaf5459bc)"><rect x="-37.5" width="450" fill="#000000" y="-37.499999" height="449.999989" fill-opacity="0.14"/></g></mask><clipPath id="5ab1647a6a"><path d="M 29 0.898438 L 30 0.898438 L 30 374.101562 L 29 374.101562 Z M 29 0.898438 " clip-rule="nonzero"/></clipPath><clipPath id="46a1609027"><path d="M 57 0.898438 L 59 0.898438 L 59 374.101562 L 57 374.101562 Z M 57 0.898438 " clip-rule="nonzero"/></clipPath><clipPath id="e0a1f51369"><path d="M 86 0.898438 L 88 0.898438 L 88 374.101562 L 86 374.101562 Z M 86 0.898438 " clip-rule="nonzero"/></clipPath><clipPath id="f6ec45242d"><path d="M 115 0.898438 L 117 0.898438 L 117 374.101562 L 115 374.101562 Z M 115 0.898438 " clip-rule="nonzero"/></clipPath><clipPath id="13a3820fe3"><path d="M 144 0.898438 L 145 0.898438 L 145 374.101562 L 144 374.101562 Z M 144 0.898438 " clip-rule="nonzero"/></clipPath><clipPath id="5a7b657911"><path d="M 172 0.898438 L 174 0.898438 L 174 374.101562 L 172 374.101562 Z M 172 0.898438 " clip-rule="nonzero"/></clipPath><clipPath id="798e0c1640"><path d="M 201 0.898438 L 203 0.898438 L 203 374.101562 L 201 374.101562 Z M 201 0.898438 " clip-rule="nonzero"/></clipPath><clipPath id="cafcbd9487"><path d="M 230 0.898438 L 231 0.898438 L 231 374.101562 L 230 374.101562 Z M 230 0.898438 " clip-rule="nonzero"/></clipPath><clipPath id="0bae4cb352"><path d="M 258 0.898438 L 260 0.898438 L 260 374.101562 L 258 374.101562 Z M 258 0.898438 " clip-rule="nonzero"/></clipPath><clipPath id="fae445ed4e"><path d="M 287 0.898438 L 289 0.898438 L 289 374.101562 L 287 374.101562 Z M 287 0.898438 " clip-rule="nonzero"/></clipPath><clipPath id="da169e56ff"><path d="M 316 0.898438 L 318 0.898438 L 318 374.101562 L 316 374.101562 Z M 316 0.898438 " clip-rule="nonzero"/></clipPath><clipPath id="f170bd6cb8"><path d="M 345 0.898438 L 346 0.898438 L 346 374.101562 L 345 374.101562 Z M 345 0.898438 " clip-rule="nonzero"/></clipPath><clipPath id="ad347c29a9"><path d="M 0.898438 29 L 374.101562 29 L 374.101562 30 L 0.898438 30 Z M 0.898438 29 " clip-rule="nonzero"/></clipPath><clipPath id="79ae34938f"><path d="M 0.898438 57 L 374.101562 57 L 374.101562 59 L 0.898438 59 Z M 0.898438 57 " clip-rule="nonzero"/></clipPath><clipPath id="6e8c366706"><path d="M 0.898438 86 L 374.101562 86 L 374.101562 88 L 0.898438 88 Z M 0.898438 86 " clip-rule="nonzero"/></clipPath><clipPath id="2d458ea169"><path d="M 0.898438 115 L 374.101562 115 L 374.101562 117 L 0.898438 117 Z M 0.898438 115 " clip-rule="nonzero"/></clipPath><clipPath id="82efa904be"><path d="M 0.898438 144 L 374.101562 144 L 374.101562 145 L 0.898438 145 Z M 0.898438 144 " clip-rule="nonzero"/></clipPath><clipPath id="04759f23ec"><path d="M 0.898438 172 L 374.101562 172 L 374.101562 174 L 0.898438 174 Z M 0.898438 172 " clip-rule="nonzero"/></clipPath><clipPath id="6e2416faaf"><path d="M 0.898438 201 L 374.101562 201 L 374.101562 203 L 0.898438 203 Z M 0.898438 201 " clip-rule="nonzero"/></clipPath><clipPath id="9b3db536d4"><path d="M 0.898438 230 L 374.101562 230 L 374.101562 231 L 0.898438 231 Z M 0.898438 230 " clip-rule="nonzero"/></clipPath><clipPath id="a5e30d99d8"><path d="M 0.898438 258 L 374.101562 258 L 374.101562 260 L 0.898438 260 Z M 0.898438 258 " clip-rule="nonzero"/></clipPath><clipPath id="fec61e61f6"><path d="M 0.898438 287 L 374.101562 287 L 374.101562 289 L 0.898438 289 Z M 0.898438 287 " clip-rule="nonzero"/></clipPath><clipPath id="b50fec51aa"><path d="M 0.898438 316 L 374.101562 316 L 374.101562 318 L 0.898438 318 Z M 0.898438 316 " clip-rule="nonzero"/></clipPath><clipPath id="86e0b6e354"><path d="M 0.898438 345 L 374.101562 345 L 374.101562 346 L 0.898438 346 Z M 0.898438 345 " clip-rule="nonzero"/></clipPath><clipPath id="50a9dcc457"><path d="M 0 0 L 375 0 L 375 375 L 0 375 Z M 0 0 " clip-rule="nonzero"/></clipPath><clipPath id="507d64e5b4"><rect x="0" width="375" y="0" height="375"/></clipPath></defs><g mask="url(#9ec53c61b5)"><g transform="matrix(1, 0, 0, 1, 0, 0)"><g clip-path="url(#507d64e5b4)"><g clip-path="url(#5ab1647a6a)"><path fill="#e8e8e8" d="M 29.203125 0 L 29.953125 0 L 29.953125 375 L 29.203125 375 Z M 29.203125 0 " fill-opacity="1" fill-rule="nonzero"/></g><g clip-path="url(#46a1609027)"><path fill="#e8e8e8" d="M 57.914062 0 L 58.664062 0 L 58.664062 375 L 57.914062 375 Z M 57.914062 0 " fill-opacity="1" fill-rule="nonzero"/></g><g clip-path="url(#e0a1f51369)"><path fill="#e8e8e8" d="M 86.632812 0 L 87.382812 0 L 87.382812 375 L 86.632812 375 Z M 86.632812 0 " fill-opacity="1" fill-rule="nonzero"/></g><g clip-path="url(#f6ec45242d)"><path fill="#e8e8e8" d="M 115.34375 0 L 116.09375 0 L 116.09375 375 L 115.34375 375 Z M 115.34375 0 " fill-opacity="1" fill-rule="nonzero"/></g><g clip-path="url(#13a3820fe3)"><path fill="#e8e8e8" d="M 144.050781 0 L 144.800781 0 L 144.800781 375 L 144.050781 375 Z M 144.050781 0 " fill-opacity="1" fill-rule="nonzero"/></g><g clip-path="url(#5a7b657911)"><path fill="#e8e8e8" d="M 172.769531 0 L 173.519531 0 L 173.519531 375 L 172.769531 375 Z M 172.769531 0 " fill-opacity="1" fill-rule="nonzero"/></g><g clip-path="url(#798e0c1640)"><path fill="#e8e8e8" d="M 201.480469 0 L 202.230469 0 L 202.230469 375 L 201.480469 375 Z M 201.480469 0 " fill-opacity="1" fill-rule="nonzero"/></g><g clip-path="url(#cafcbd9487)"><path fill="#e8e8e8" d="M 230.199219 0 L 230.949219 0 L 230.949219 375 L 230.199219 375 Z M 230.199219 0 " fill-opacity="1" fill-rule="nonzero"/></g><g clip-path="url(#0bae4cb352)"><path fill="#e8e8e8" d="M 258.90625 0 L 259.65625 0 L 259.65625 375 L 258.90625 375 Z M 258.90625 0 " fill-opacity="1" fill-rule="nonzero"/></g><g clip-path="url(#fae445ed4e)"><path fill="#e8e8e8" d="M 287.617188 0 L 288.367188 0 L 288.367188 375 L 287.617188 375 Z M 287.617188 0 " fill-opacity="1" fill-rule="nonzero"/></g><g clip-path="url(#da169e56ff)"><path fill="#e8e8e8" d="M 316.335938 0 L 317.085938 0 L 317.085938 375 L 316.335938 375 Z M 316.335938 0 " fill-opacity="1" fill-rule="nonzero"/></g><g clip-path="url(#f170bd6cb8)"><path fill="#e8e8e8" d="M 345.046875 0 L 345.796875 0 L 345.796875 375 L 345.046875 375 Z M 345.046875 0 " fill-opacity="1" fill-rule="nonzero"/></g><g clip-path="url(#ad347c29a9)"><path fill="#e8e8e8" d="M 0 29.203125 L 375 29.203125 L 375 29.953125 L 0 29.953125 Z M 0 29.203125 " fill-opacity="1" fill-rule="nonzero"/></g><g clip-path="url(#79ae34938f)"><path fill="#e8e8e8" d="M 0 57.914062 L 375 57.914062 L 375 58.664062 L 0 58.664062 Z M 0 57.914062 " fill-opacity="1" fill-rule="nonzero"/></g><g clip-path="url(#6e8c366706)"><path fill="#e8e8e8" d="M 0 86.632812 L 375 86.632812 L 375 87.382812 L 0 87.382812 Z M 0 86.632812 " fill-opacity="1" fill-rule="nonzero"/></g><g clip-path="url(#2d458ea169)"><path fill="#e8e8e8" d="M 0 115.34375 L 375 115.34375 L 375 116.09375 L 0 116.09375 Z M 0 115.34375 " fill-opacity="1" fill-rule="nonzero"/></g><g clip-path="url(#82efa904be)"><path fill="#e8e8e8" d="M 0 144.050781 L 375 144.050781 L 375 144.800781 L 0 144.800781 Z M 0 144.050781 " fill-opacity="1" fill-rule="nonzero"/></g><g clip-path="url(#04759f23ec)"><path fill="#e8e8e8" d="M 0 172.769531 L 375 172.769531 L 375 173.519531 L 0 173.519531 Z M 0 172.769531 " fill-opacity="1" fill-rule="nonzero"/></g><g clip-path="url(#6e2416faaf)"><path fill="#e8e8e8" d="M 0 201.480469 L 375 201.480469 L 375 202.230469 L 0 202.230469 Z M 0 201.480469 " fill-opacity="1" fill-rule="nonzero"/></g><g clip-path="url(#9b3db536d4)"><path fill="#e8e8e8" d="M 0 230.199219 L 375 230.199219 L 375 230.949219 L 0 230.949219 Z M 0 230.199219 " fill-opacity="1" fill-rule="nonzero"/></g><g clip-path="url(#a5e30d99d8)"><path fill="#e8e8e8" d="M 0 258.90625 L 375 258.90625 L 375 259.65625 L 0 259.65625 Z M 0 258.90625 " fill-opacity="1" fill-rule="nonzero"/></g><g clip-path="url(#fec61e61f6)"><path fill="#e8e8e8" d="M 0 287.617188 L 375 287.617188 L 375 288.367188 L 0 288.367188 Z M 0 287.617188 " fill-opacity="1" fill-rule="nonzero"/></g><g clip-path="url(#b50fec51aa)"><path fill="#e8e8e8" d="M 0 316.335938 L 375 316.335938 L 375 317.085938 L 0 317.085938 Z M 0 316.335938 " fill-opacity="1" fill-rule="nonzero"/></g><g clip-path="url(#86e0b6e354)"><path fill="#e8e8e8" d="M 0 345.046875 L 375 345.046875 L 375 345.796875 L 0 345.796875 Z M 0 345.046875 " fill-opacity="1" fill-rule="nonzero"/></g><g clip-path="url(#50a9dcc457)"><path stroke-linecap="butt" transform="matrix(0.75, 0, 0, 0.75, 0.0000045, 0)" fill="none" stroke-linejoin="miter" d="M -0.000006 0 L -0.000006 500.000033 L 500.000027 500.000033 L 500.000027 0 L -0.000006 0 " stroke="#e8e8e8" stroke-width="1" stroke-opacity="1" stroke-miterlimit="4"/></g></g></g></g><g fill="#ffffff" fill-opacity="1"><g transform="translate(11.145116, 87.061145)"><g><path d="M 8.328125 -70.53125 L 19.5 -70.53125 L 38.203125 -23.21875 C 38.722656 -22.039062 39.210938 -20.679688 39.671875 -19.140625 C 40.128906 -17.609375 40.523438 -16.160156 40.859375 -14.796875 C 41.304688 -13.160156 41.726562 -11.492188 42.125 -9.796875 L 42.90625 -9.796875 C 42.90625 -9.796875 42.875 -10.140625 42.8125 -10.828125 C 42.75 -11.515625 42.648438 -12.441406 42.515625 -13.609375 C 42.390625 -14.785156 42.273438 -16.140625 42.171875 -17.671875 C 42.078125 -19.210938 42.03125 -20.832031 42.03125 -22.53125 L 42.03125 -70.53125 L 50.453125 -70.53125 L 50.453125 0 L 39.28125 0 L 20.875 -47.421875 C 20.34375 -48.921875 19.816406 -50.453125 19.296875 -52.015625 C 18.773438 -53.585938 18.351562 -55.023438 18.03125 -56.328125 C 17.570312 -57.828125 17.175781 -59.332031 16.84375 -60.84375 L 16.0625 -60.84375 C 16.195312 -59.789062 16.328125 -58.613281 16.453125 -57.3125 C 16.523438 -56.195312 16.59375 -54.875 16.65625 -53.34375 C 16.71875 -51.8125 16.75 -50.097656 16.75 -48.203125 L 16.75 0 L 8.328125 0 Z M 8.328125 -70.53125 "/></g></g></g><g fill="#ffffff" fill-opacity="1"><g transform="translate(69.923326, 87.061145)"><g><path d="M 4.3125 0 L 23.515625 -70.53125 L 35.859375 -70.53125 L 54.46875 0 L 45.0625 0 L 40.171875 -19.890625 L 18.515625 -19.890625 L 13.515625 0 Z M 20.375 -27.234375 L 38.40625 -27.234375 L 31.546875 -55.15625 C 31.222656 -56.53125 30.925781 -57.785156 30.65625 -58.921875 C 30.394531 -60.066406 30.203125 -61.097656 30.078125 -62.015625 C 29.941406 -62.992188 29.8125 -63.875 29.6875 -64.65625 L 29.296875 -64.65625 C 29.160156 -63.875 28.992188 -62.992188 28.796875 -62.015625 C 28.671875 -61.097656 28.476562 -60.066406 28.21875 -58.921875 C 27.957031 -57.785156 27.660156 -56.53125 27.328125 -55.15625 Z M 20.375 -27.234375 "/></g></g></g><g fill="#ffffff" fill-opacity="1"><g transform="translate(128.701536, 87.061145)"><g><path d="M 26.453125 -6.859375 C 30.628906 -6.859375 33.957031 -8.050781 36.4375 -10.4375 C 38.925781 -12.820312 40.171875 -16.035156 40.171875 -20.078125 L 40.171875 -62.703125 L 12.734375 -62.703125 L 12.734375 -70.53125 L 48.984375 -70.53125 L 48.984375 -20.078125 C 48.984375 -16.878906 48.457031 -13.972656 47.40625 -11.359375 C 46.363281 -8.753906 44.863281 -6.535156 42.90625 -4.703125 C 40.945312 -2.867188 38.578125 -1.460938 35.796875 -0.484375 C 33.023438 0.492188 29.910156 0.984375 26.453125 0.984375 C 23.578125 0.984375 20.898438 0.5625 18.421875 -0.28125 C 15.941406 -1.132812 13.738281 -2.363281 11.8125 -3.96875 C 9.882812 -5.570312 8.28125 -7.484375 7 -9.703125 C 5.726562 -11.921875 4.863281 -14.398438 4.40625 -17.140625 L 13.21875 -17.140625 C 13.8125 -14.003906 15.316406 -11.503906 17.734375 -9.640625 C 20.148438 -7.785156 23.054688 -6.859375 26.453125 -6.859375 Z M 26.453125 -6.859375 "/></g></g></g><g fill="#ffffff" fill-opacity="1"><g transform="translate(187.479746, 87.061145)"><g><path d="M 9.3125 0 L 9.3125 -70.53125 L 50.9375 -70.53125 L 50.9375 -62.5 L 18.125 -62.5 L 18.125 -40.359375 L 47.515625 -40.359375 L 47.515625 -32.328125 L 18.125 -32.328125 L 18.125 -8.03125 L 50.9375 -8.03125 L 50.9375 0 Z M 9.3125 0 "/></g></g></g><g fill="#ffffff" fill-opacity="1"><g transform="translate(246.257956, 87.061145)"><g><path d="M 9.3125 0 L 9.3125 -70.53125 L 50.9375 -70.53125 L 50.9375 -62.5 L 18.125 -62.5 L 18.125 -40.359375 L 47.515625 -40.359375 L 47.515625 -32.328125 L 18.125 -32.328125 L 18.125 -8.03125 L 50.9375 -8.03125 L 50.9375 0 Z M 9.3125 0 "/></g></g></g><g fill="#ffffff" fill-opacity="1"><g transform="translate(305.036166, 87.061145)"><g><path d="M 29.484375 -70.53125 C 36.148438 -70.53125 41.375 -68.863281 45.15625 -65.53125 C 48.945312 -62.207031 50.84375 -57.671875 50.84375 -51.921875 C 50.84375 -47.742188 49.648438 -44.332031 47.265625 -41.6875 C 44.878906 -39.039062 41.726562 -37.554688 37.8125 -37.234375 L 37.8125 -36.640625 C 42.320312 -36.378906 45.832031 -34.78125 48.34375 -31.84375 C 50.863281 -28.90625 52.125 -24.921875 52.125 -19.890625 C 52.125 -16.816406 51.632812 -14.054688 50.65625 -11.609375 C 49.675781 -9.160156 48.253906 -7.070312 46.390625 -5.34375 C 44.523438 -3.613281 42.253906 -2.289062 39.578125 -1.375 C 36.898438 -0.457031 33.894531 0 30.5625 0 L 8.8125 0 L 8.8125 -70.53125 Z M 17.53125 -8.03125 L 29.59375 -8.03125 C 33.769531 -8.03125 37.015625 -9.109375 39.328125 -11.265625 C 41.648438 -13.421875 42.8125 -16.394531 42.8125 -20.1875 C 42.8125 -23.96875 41.632812 -26.9375 39.28125 -29.09375 C 36.9375 -31.25 33.707031 -32.328125 29.59375 -32.328125 L 17.53125 -32.328125 Z M 17.53125 -62.5 L 17.53125 -39.96875 L 29.390625 -39.96875 C 33.109375 -39.96875 36.0625 -40.960938 38.25 -42.953125 C 40.4375 -44.953125 41.53125 -47.710938 41.53125 -51.234375 C 41.53125 -54.765625 40.453125 -57.523438 38.296875 -59.515625 C 36.148438 -61.503906 33.210938 -62.5 29.484375 -62.5 Z M 17.53125 -62.5 "/></g></g></g><g fill="#ffffff" fill-opacity="1"><g transform="translate(11.145116, 222.612734)"><g><path d="M 2.9375 -70.53125 L 12.25 -70.53125 L 26.75 -39.484375 C 27.207031 -38.566406 27.582031 -37.648438 27.875 -36.734375 C 28.164062 -35.816406 28.441406 -35.003906 28.703125 -34.296875 C 28.960938 -33.441406 29.191406 -32.585938 29.390625 -31.734375 L 29.78125 -31.734375 C 29.976562 -32.585938 30.238281 -33.441406 30.5625 -34.296875 C 30.757812 -35.003906 31.019531 -35.816406 31.34375 -36.734375 C 31.675781 -37.648438 32.035156 -38.566406 32.421875 -39.484375 L 46.4375 -70.53125 L 55.84375 -70.53125 L 33.796875 -24.5 L 33.796875 0 L 24.984375 0 L 24.984375 -24.5 Z M 2.9375 -70.53125 "/></g></g></g><g fill="#ffffff" fill-opacity="1"><g transform="translate(69.923326, 222.612734)"><g><path d="M 29.390625 0.984375 C 22.660156 0.984375 17.46875 -0.84375 13.8125 -4.5 C 10.15625 -8.164062 8.328125 -13.195312 8.328125 -19.59375 L 8.328125 -70.53125 L 17.140625 -70.53125 L 17.140625 -19.59375 C 17.140625 -15.675781 18.1875 -12.570312 20.28125 -10.28125 C 22.375 -8 25.410156 -6.859375 29.390625 -6.859375 C 33.304688 -6.859375 36.328125 -8 38.453125 -10.28125 C 40.578125 -12.570312 41.640625 -15.675781 41.640625 -19.59375 L 41.640625 -70.53125 L 50.453125 -70.53125 L 50.453125 -19.59375 C 50.453125 -13.125 48.625 -8.078125 44.96875 -4.453125 C 41.3125 -0.828125 36.117188 0.984375 29.390625 0.984375 Z M 29.390625 0.984375 "/></g></g></g><g fill="#ffffff" fill-opacity="1"><g transform="translate(128.701536, 222.612734)"><g><path d="M 29.390625 0.984375 C 26.191406 0.984375 23.21875 0.539062 20.46875 -0.34375 C 17.726562 -1.226562 15.363281 -2.5 13.375 -4.15625 C 11.382812 -5.820312 9.816406 -7.832031 8.671875 -10.1875 C 7.523438 -12.539062 6.921875 -15.1875 6.859375 -18.125 L 16.171875 -18.125 C 16.171875 -16.425781 16.507812 -14.890625 17.1875 -13.515625 C 17.875 -12.148438 18.835938 -10.972656 20.078125 -9.984375 C 21.316406 -9.003906 22.753906 -8.238281 24.390625 -7.6875 C 26.023438 -7.132812 27.757812 -6.859375 29.59375 -6.859375 C 33.707031 -6.859375 36.972656 -7.820312 39.390625 -9.75 C 41.804688 -11.675781 43.015625 -14.304688 43.015625 -17.640625 C 43.015625 -20.441406 42.128906 -22.9375 40.359375 -25.125 C 38.597656 -27.3125 36.050781 -29.023438 32.71875 -30.265625 L 25.28125 -33.015625 C 14.375 -36.992188 8.921875 -43.59375 8.921875 -52.8125 C 8.921875 -58.6875 10.78125 -63.269531 14.5 -66.5625 C 18.21875 -69.863281 23.34375 -71.515625 29.875 -71.515625 C 32.945312 -71.515625 35.753906 -71.085938 38.296875 -70.234375 C 40.847656 -69.390625 43.050781 -68.148438 44.90625 -66.515625 C 46.769531 -64.890625 48.238281 -62.914062 49.3125 -60.59375 C 50.394531 -58.269531 50.972656 -55.675781 51.046875 -52.8125 L 41.734375 -52.8125 C 41.734375 -54.4375 41.40625 -55.914062 40.75 -57.25 C 40.101562 -58.59375 39.238281 -59.738281 38.15625 -60.6875 C 37.082031 -61.632812 35.828125 -62.367188 34.390625 -62.890625 C 32.953125 -63.421875 31.414062 -63.6875 29.78125 -63.6875 C 26.0625 -63.6875 23.140625 -62.800781 21.015625 -61.03125 C 18.890625 -59.269531 17.828125 -56.890625 17.828125 -53.890625 C 17.828125 -50.941406 18.625 -48.503906 20.21875 -46.578125 C 21.820312 -44.648438 24.421875 -43.035156 28.015625 -41.734375 L 35.859375 -38.890625 C 41.078125 -36.992188 45.054688 -34.25 47.796875 -30.65625 C 50.546875 -27.070312 51.921875 -22.828125 51.921875 -17.921875 C 51.921875 -12.046875 49.910156 -7.425781 45.890625 -4.0625 C 41.878906 -0.695312 36.378906 0.984375 29.390625 0.984375 Z M 29.390625 0.984375 "/></g></g></g><g fill="#ffffff" fill-opacity="1"><g transform="translate(187.479746, 222.612734)"><g><path d="M 29.390625 0.984375 C 22.660156 0.984375 17.46875 -0.84375 13.8125 -4.5 C 10.15625 -8.164062 8.328125 -13.195312 8.328125 -19.59375 L 8.328125 -70.53125 L 17.140625 -70.53125 L 17.140625 -19.59375 C 17.140625 -15.675781 18.1875 -12.570312 20.28125 -10.28125 C 22.375 -8 25.410156 -6.859375 29.390625 -6.859375 C 33.304688 -6.859375 36.328125 -8 38.453125 -10.28125 C 40.578125 -12.570312 41.640625 -15.675781 41.640625 -19.59375 L 41.640625 -70.53125 L 50.453125 -70.53125 L 50.453125 -19.59375 C 50.453125 -13.125 48.625 -8.078125 44.96875 -4.453125 C 41.3125 -0.828125 36.117188 0.984375 29.390625 0.984375 Z M 29.390625 0.984375 "/></g></g></g><g fill="#ffffff" fill-opacity="1"><g transform="translate(246.257956, 222.612734)"><g><path d="M 9.3125 -70.640625 L 51.4375 -70.640625 L 51.4375 -62.796875 L 17.921875 -62.796875 L 17.921875 -39.96875 L 48.890625 -39.96875 L 48.890625 -32.140625 L 18.125 -32.140625 L 18.125 0 L 9.3125 0 Z M 9.3125 -70.640625 "/></g></g></g><g fill="#ffffff" fill-opacity="1"><g transform="translate(11.145116, 358.164323)"><g><path d="M 18.125 -44.578125 C 18.125 -49.347656 18.804688 -53.804688 20.171875 -57.953125 C 21.546875 -62.097656 23.503906 -65.816406 26.046875 -69.109375 C 28.597656 -72.410156 31.6875 -75.238281 35.3125 -77.59375 C 38.9375 -79.945312 43.003906 -81.675781 47.515625 -82.78125 L 47.515625 -74.453125 C 44.378906 -73.734375 41.535156 -72.492188 38.984375 -70.734375 C 36.441406 -68.972656 34.285156 -66.785156 32.515625 -64.171875 C 30.753906 -61.554688 29.382812 -58.597656 28.40625 -55.296875 C 27.425781 -52.003906 26.9375 -48.429688 26.9375 -44.578125 L 26.9375 -25.96875 C 26.9375 -22.175781 27.410156 -18.644531 28.359375 -15.375 C 29.304688 -12.113281 30.675781 -9.207031 32.46875 -6.65625 C 34.269531 -4.113281 36.441406 -1.957031 38.984375 -0.1875 C 41.535156 1.570312 44.378906 2.8125 47.515625 3.53125 L 47.515625 12.25 C 42.878906 11.070312 38.75 9.335938 35.125 7.046875 C 31.5 4.765625 28.425781 1.992188 25.90625 -1.265625 C 23.394531 -4.535156 21.46875 -8.242188 20.125 -12.390625 C 18.789062 -16.535156 18.125 -21.0625 18.125 -25.96875 Z M 18.125 -44.578125 "/></g></g></g><g fill="#ffffff" fill-opacity="1"><g transform="translate(69.923326, 358.164323)"><g><path d="M 7.34375 0 L 7.34375 -70.53125 L 18.3125 -70.53125 L 26.9375 -46.640625 C 27.269531 -45.921875 27.566406 -45.085938 27.828125 -44.140625 C 28.085938 -43.191406 28.316406 -42.320312 28.515625 -41.53125 C 28.773438 -40.550781 29.035156 -39.609375 29.296875 -38.703125 L 29.875 -38.703125 C 30.132812 -39.609375 30.398438 -40.550781 30.671875 -41.53125 C 30.929688 -42.320312 31.207031 -43.191406 31.5 -44.140625 C 31.789062 -45.085938 32.066406 -45.921875 32.328125 -46.640625 L 40.46875 -70.53125 L 51.4375 -70.53125 L 51.4375 0 L 43.296875 0 L 43.296875 -49.46875 C 43.296875 -50.519531 43.3125 -51.695312 43.34375 -53 C 43.382812 -54.300781 43.46875 -55.578125 43.59375 -56.828125 C 43.65625 -58.265625 43.722656 -59.695312 43.796875 -61.125 L 43.203125 -61.125 C 42.804688 -59.757812 42.414062 -58.421875 42.03125 -57.109375 C 41.695312 -55.941406 41.316406 -54.671875 40.890625 -53.296875 C 40.472656 -51.921875 40.066406 -50.644531 39.671875 -49.46875 L 33.609375 -31.34375 L 25.375 -31.34375 L 19.296875 -49.46875 C 18.910156 -50.707031 18.488281 -52.015625 18.03125 -53.390625 C 17.570312 -54.765625 17.175781 -56.039062 16.84375 -57.21875 C 16.457031 -58.582031 16.066406 -59.921875 15.671875 -61.234375 L 15.1875 -61.234375 C 15.25 -59.796875 15.3125 -58.359375 15.375 -56.921875 C 15.375 -55.742188 15.390625 -54.484375 15.421875 -53.140625 C 15.460938 -51.804688 15.484375 -50.582031 15.484375 -49.46875 L 15.484375 0 Z M 7.34375 0 "/></g></g></g><g fill="#ffffff" fill-opacity="1"><g transform="translate(128.701536, 358.164323)"><g><path d="M 29.390625 0.984375 C 26.191406 0.984375 23.21875 0.539062 20.46875 -0.34375 C 17.726562 -1.226562 15.363281 -2.5 13.375 -4.15625 C 11.382812 -5.820312 9.816406 -7.832031 8.671875 -10.1875 C 7.523438 -12.539062 6.921875 -15.1875 6.859375 -18.125 L 16.171875 -18.125 C 16.171875 -16.425781 16.507812 -14.890625 17.1875 -13.515625 C 17.875 -12.148438 18.835938 -10.972656 20.078125 -9.984375 C 21.316406 -9.003906 22.753906 -8.238281 24.390625 -7.6875 C 26.023438 -7.132812 27.757812 -6.859375 29.59375 -6.859375 C 33.707031 -6.859375 36.972656 -7.820312 39.390625 -9.75 C 41.804688 -11.675781 43.015625 -14.304688 43.015625 -17.640625 C 43.015625 -20.441406 42.128906 -22.9375 40.359375 -25.125 C 38.597656 -27.3125 36.050781 -29.023438 32.71875 -30.265625 L 25.28125 -33.015625 C 14.375 -36.992188 8.921875 -43.59375 8.921875 -52.8125 C 8.921875 -58.6875 10.78125 -63.269531 14.5 -66.5625 C 18.21875 -69.863281 23.34375 -71.515625 29.875 -71.515625 C 32.945312 -71.515625 35.753906 -71.085938 38.296875 -70.234375 C 40.847656 -69.390625 43.050781 -68.148438 44.90625 -66.515625 C 46.769531 -64.890625 48.238281 -62.914062 49.3125 -60.59375 C 50.394531 -58.269531 50.972656 -55.675781 51.046875 -52.8125 L 41.734375 -52.8125 C 41.734375 -54.4375 41.40625 -55.914062 40.75 -57.25 C 40.101562 -58.59375 39.238281 -59.738281 38.15625 -60.6875 C 37.082031 -61.632812 35.828125 -62.367188 34.390625 -62.890625 C 32.953125 -63.421875 31.414062 -63.6875 29.78125 -63.6875 C 26.0625 -63.6875 23.140625 -62.800781 21.015625 -61.03125 C 18.890625 -59.269531 17.828125 -56.890625 17.828125 -53.890625 C 17.828125 -50.941406 18.625 -48.503906 20.21875 -46.578125 C 21.820312 -44.648438 24.421875 -43.035156 28.015625 -41.734375 L 35.859375 -38.890625 C 41.078125 -36.992188 45.054688 -34.25 47.796875 -30.65625 C 50.546875 -27.070312 51.921875 -22.828125 51.921875 -17.921875 C 51.921875 -12.046875 49.910156 -7.425781 45.890625 -4.0625 C 41.878906 -0.695312 36.378906 0.984375 29.390625 0.984375 Z M 29.390625 0.984375 "/></g></g></g><g fill="#ffffff" fill-opacity="1"><g transform="translate(187.479746, 358.164323)"><g><path d="M 30.171875 0.984375 C 26.835938 0.984375 23.847656 0.492188 21.203125 -0.484375 C 18.566406 -1.460938 16.316406 -2.867188 14.453125 -4.703125 C 12.585938 -6.535156 11.148438 -8.753906 10.140625 -11.359375 C 9.128906 -13.972656 8.625 -16.878906 8.625 -20.078125 L 8.625 -33.796875 C 8.625 -36.992188 9.128906 -39.898438 10.140625 -42.515625 C 11.148438 -45.128906 12.585938 -47.347656 14.453125 -49.171875 C 16.316406 -51.003906 18.566406 -52.410156 21.203125 -53.390625 C 23.847656 -54.367188 26.835938 -54.859375 30.171875 -54.859375 C 36.117188 -54.859375 41 -53.238281 44.8125 -50 C 48.632812 -46.769531 50.941406 -42.347656 51.734375 -36.734375 L 42.90625 -36.734375 C 42.445312 -39.867188 41.054688 -42.367188 38.734375 -44.234375 C 36.421875 -46.097656 33.566406 -47.03125 30.171875 -47.03125 C 26.253906 -47.03125 23.148438 -45.851562 20.859375 -43.5 C 18.578125 -41.144531 17.4375 -37.910156 17.4375 -33.796875 L 17.4375 -20.078125 C 17.4375 -15.960938 18.5625 -12.726562 20.8125 -10.375 C 23.070312 -8.03125 26.191406 -6.859375 30.171875 -6.859375 C 33.566406 -6.859375 36.421875 -7.785156 38.734375 -9.640625 C 41.054688 -11.503906 42.445312 -14.003906 42.90625 -17.140625 L 51.734375 -17.140625 C 50.878906 -11.460938 48.539062 -7.019531 44.71875 -3.8125 C 40.894531 -0.613281 36.046875 0.984375 30.171875 0.984375 Z M 30.171875 0.984375 "/></g></g></g><g fill="#ffffff" fill-opacity="1"><g transform="translate(246.257956, 358.164323)"><g><path d="M 20.96875 -7.734375 C 20.96875 -10.285156 21.734375 -12.328125 23.265625 -13.859375 C 24.796875 -15.398438 26.835938 -16.171875 29.390625 -16.171875 C 31.941406 -16.171875 33.984375 -15.398438 35.515625 -13.859375 C 37.046875 -12.328125 37.8125 -10.285156 37.8125 -7.734375 C 37.8125 -5.128906 37.046875 -3.023438 35.515625 -1.421875 C 33.984375 0.179688 31.941406 0.984375 29.390625 0.984375 C 26.835938 0.984375 24.796875 0.179688 23.265625 -1.421875 C 21.734375 -3.023438 20.96875 -5.128906 20.96875 -7.734375 Z M 20.96875 -7.734375 "/></g></g></g><g fill="#ffffff" fill-opacity="1"><g transform="translate(305.036166, 358.164323)"><g><path d="M 11.265625 3.53125 C 14.398438 2.8125 17.238281 1.570312 19.78125 -0.1875 C 22.332031 -1.957031 24.503906 -4.113281 26.296875 -6.65625 C 28.097656 -9.207031 29.472656 -12.113281 30.421875 -15.375 C 31.367188 -18.644531 31.84375 -22.175781 31.84375 -25.96875 L 31.84375 -44.578125 C 31.84375 -48.429688 31.351562 -52.003906 30.375 -55.296875 C 29.394531 -58.597656 28.019531 -61.554688 26.25 -64.171875 C 24.488281 -66.785156 22.332031 -68.972656 19.78125 -70.734375 C 17.238281 -72.492188 14.398438 -73.734375 11.265625 -74.453125 L 11.265625 -82.78125 C 15.773438 -81.675781 19.84375 -79.945312 23.46875 -77.59375 C 27.09375 -75.238281 30.175781 -72.410156 32.71875 -69.109375 C 35.269531 -65.816406 37.226562 -62.097656 38.59375 -57.953125 C 39.96875 -53.804688 40.65625 -49.347656 40.65625 -44.578125 L 40.65625 -25.96875 C 40.65625 -21.0625 39.984375 -16.535156 38.640625 -12.390625 C 37.304688 -8.242188 35.378906 -4.535156 32.859375 -1.265625 C 30.347656 1.992188 27.28125 4.765625 23.65625 7.046875 C 20.03125 9.335938 15.898438 11.070312 11.265625 12.25 Z M 11.265625 3.53125 "/></g></g></g></svg>