<svg id="visual" viewBox="0 0 900 675" width="900" height="675" xmlns="http://www.w3.org/2000/svg" xmlns:xlink="http://www.w3.org/1999/xlink" version="1.1"><rect width="900" height="675" fill="#272f39"></rect><g><g transform="translate(507 513)"><path d="M107.8 -38.5C120 2.5 96.6 51.6 58.7 78.5C20.9 105.5 -31.4 110.3 -66.7 86C-102 61.7 -120.3 8.3 -106.4 -35C-92.4 -78.4 -46.2 -111.7 0.8 -111.9C47.8 -112.2 95.7 -79.4 107.8 -38.5Z" stroke="#eab308" fill="none" stroke-width="20"></path></g><g transform="translate(87 525)"><path d="M78.6 -25.4C89.9 9.4 79 51.5 51 72.3C23.1 93.1 -21.9 92.5 -51.8 70.9C-81.7 49.3 -96.5 6.5 -85.3 -28C-74.2 -62.5 -37.1 -88.7 -1.7 -88.2C33.6 -87.6 67.2 -60.2 78.6 -25.4Z" stroke="#eab308" fill="none" stroke-width="20"></path></g><g transform="translate(366 51)"><path d="M54.6 -15.2C62.8 7.6 56.1 37.8 37.2 51.6C18.3 65.4 -12.7 62.9 -33.7 47.4C-54.8 31.9 -65.7 3.5 -58.4 -18C-51.1 -39.6 -25.6 -54.2 -1.2 -53.9C23.2 -53.5 46.4 -38 54.6 -15.2Z" stroke="#eab308" fill="none" stroke-width="20"></path></g></g></svg>