<svg id="visual" viewBox="0 0 900 675" width="900" height="675" xmlns="http://www.w3.org/2000/svg" xmlns:xlink="http://www.w3.org/1999/xlink" version="1.1"><rect x="0" y="0" width="900" height="675" fill="#272f39"></rect><path d="M0 227L129 239L257 267L386 191L514 176L643 191L771 242L900 254L900 0L771 0L643 0L514 0L386 0L257 0L129 0L0 0Z" fill="#f1ca61"></path><path d="M0 209L129 153L257 136L386 205L514 181L643 148L771 180L900 156L900 0L771 0L643 0L514 0L386 0L257 0L129 0L0 0Z" fill="#eebf3f"></path><path d="M0 168L129 131L257 164L386 120L514 119L643 171L771 164L900 109L900 0L771 0L643 0L514 0L386 0L257 0L129 0L0 0Z" fill="#eab308"></path><path d="M0 83L129 116L257 107L386 82L514 132L643 92L771 125L900 127L900 0L771 0L643 0L514 0L386 0L257 0L129 0L0 0Z" fill="#ca9b09"></path><path d="M0 44L129 58L257 65L386 72L514 57L643 54L771 58L900 61L900 0L771 0L643 0L514 0L386 0L257 0L129 0L0 0Z" fill="#ab8309"></path></svg>