<svg id="visual" viewBox="0 0 900 675" width="900" height="675" xmlns="http://www.w3.org/2000/svg" xmlns:xlink="http://www.w3.org/1999/xlink" version="1.1"><rect x="0" y="0" width="900" height="675" fill="#272f39"></rect><path d="M753 675L709 675L709 579L714 579L714 482L734 482L734 386L722 386L722 289L688 289L688 193L731 193L731 96L748 96L748 0L900 0L900 96L900 96L900 193L900 193L900 289L900 289L900 386L900 386L900 482L900 482L900 579L900 579L900 675L900 675Z" fill="#f1ca61"></path><path d="M739 675L797 675L797 579L791 579L791 482L745 482L745 386L811 386L811 289L802 289L802 193L773 193L773 96L748 96L748 0L900 0L900 96L900 96L900 193L900 193L900 289L900 289L900 386L900 386L900 482L900 482L900 579L900 579L900 675L900 675Z" fill="#eab308"></path><path d="M851 675L840 675L840 579L867 579L867 482L851 482L851 386L816 386L816 289L817 289L817 193L851 193L851 96L864 96L864 0L900 0L900 96L900 96L900 193L900 193L900 289L900 289L900 386L900 386L900 482L900 482L900 579L900 579L900 675L900 675Z" fill="#ab8309"></path></svg>