<svg id="visual" viewBox="0 0 900 675" width="900" height="675" xmlns="http://www.w3.org/2000/svg" xmlns:xlink="http://www.w3.org/1999/xlink" version="1.1"><rect x="0" y="0" width="900" height="675" fill="#272f39"></rect><g fill="none" stroke="#eab308" stroke-width="4"><path d="M33.7 19.5L33.7 86.9L-33.7 86.9L-33.7 19.5L-92.2 -14.3L-58.4 -72.7L0 -39L58.4 -72.7L92.2 -14.3Z" transform="translate(723 628)"></path><path d="M14.8 8.6L14.8 38.3L-14.8 38.3L-14.8 8.6L-40.5 -6.3L-25.7 -32L0 -17.1L25.7 -32L40.5 -6.3Z" transform="translate(626 316)"></path><path d="M16.7 9.7L16.7 43.1L-16.7 43.1L-16.7 9.7L-45.7 -7.1L-29 -36.1L0 -19.3L29 -36.1L45.7 -7.1Z" transform="translate(79 494)"></path><path d="M30 17.3L30 77.2L-30 77.2L-30 17.3L-81.8 -12.7L-51.9 -64.5L0 -34.6L51.9 -64.5L81.8 -12.7Z" transform="translate(145 64)"></path></g></svg>