<svg id="visual" viewBox="0 0 900 600" width="900" height="600" xmlns="http://www.w3.org/2000/svg" xmlns:xlink="http://www.w3.org/1999/xlink" version="1.1"><rect x="0" y="0" width="900" height="600" fill="#272f35"></rect><path d="M181 0L184.8 14.3C188.7 28.7 196.3 57.3 203.7 85.8C211 114.3 218 142.7 208 171.2C198 199.7 171 228.3 159 257C147 285.7 150 314.3 164.3 343C178.7 371.7 204.3 400.3 226.3 428.8C248.3 457.3 266.7 485.7 282 514.2C297.3 542.7 309.7 571.3 315.8 585.7L322 600L0 600L0 585.7C0 571.3 0 542.7 0 514.2C0 485.7 0 457.3 0 428.8C0 400.3 0 371.7 0 343C0 314.3 0 285.7 0 257C0 228.3 0 199.7 0 171.2C0 142.7 0 114.3 0 85.8C0 57.3 0 28.7 0 14.3L0 0Z" fill="#eab308" stroke-linecap="round" stroke-linejoin="miter"></path></svg>