<svg id="visual" viewBox="0 0 960 540" width="960" height="540" xmlns="http://www.w3.org/2000/svg" xmlns:xlink="http://www.w3.org/1999/xlink" version="1.1"><rect x="0" y="0" width="960" height="540" fill="#18181b"></rect><path d="M0 339L137 349L274 374L411 380L549 336L686 391L823 352L960 405L960 541L823 541L686 541L549 541L411 541L274 541L137 541L0 541Z" fill="#ab8309"></path><path d="M0 443L137 381L274 422L411 367L549 375L686 375L823 390L960 434L960 541L823 541L686 541L549 541L411 541L274 541L137 541L0 541Z" fill="#d5a309"></path><path d="M0 476L137 459L274 419L411 472L549 440L686 482L823 430L960 473L960 541L823 541L686 541L549 541L411 541L274 541L137 541L0 541Z" fill="#ecbb32"></path><path d="M0 493L137 511L274 479L411 478L549 509L686 508L823 507L960 507L960 541L823 541L686 541L549 541L411 541L274 541L137 541L0 541Z" fill="#f1ca61"></path></svg>